<?xml version="1.0" encoding="UTF-8" standalone="no"?>
<svg
   width="389.61584"
   height="389.61584"
   version="1.1"
   id="svg2"
   sodipodi:docname="opt-logo-circle.svg"
   inkscape:version="1.4 (86a8ad7, 2024-10-11)"
   xmlns:inkscape="http://www.inkscape.org/namespaces/inkscape"
   xmlns:sodipodi="http://sodipodi.sourceforge.net/DTD/sodipodi-0.dtd"
   xmlns="http://www.w3.org/2000/svg"
   xmlns:svg="http://www.w3.org/2000/svg">
  <defs
     id="defs2" />
  <sodipodi:namedview
     id="namedview2"
     pagecolor="#ffffff"
     bordercolor="#000000"
     borderopacity="0.25"
     inkscape:showpageshadow="2"
     inkscape:pageopacity="0.0"
     inkscape:pagecheckerboard="0"
     inkscape:deskcolor="#d1d1d1"
     showguides="true"
     inkscape:zoom="1.4142136"
     inkscape:cx="91.570328"
     inkscape:cy="167.93786"
     inkscape:window-width="1920"
     inkscape:window-height="1009"
     inkscape:window-x="1912"
     inkscape:window-y="-8"
     inkscape:window-maximized="1"
     inkscape:current-layer="svg2" />
  <path
     style="fill:#ffffff"
     id="path3"
     sodipodi:type="arc"
     sodipodi:cx="194.80792"
     sodipodi:cy="194.80792"
     sodipodi:rx="194.80792"
     sodipodi:ry="194.80792"
     sodipodi:start="0.086872348"
     sodipodi:end="0.074870271"
     sodipodi:open="true"
     sodipodi:arc-type="arc"
     d="M 388.88122,211.71007 A 194.80792,194.80792 0 0 1 178.48817,388.93106 194.80792,194.80792 0 0 1 0.63669122,179.07072 194.80792,194.80792 0 0 1 209.96244,0.59034558 194.80792,194.80792 0 0 1 389.0701,209.37962" />
  <g
     class="layer"
     fill="#1f221c"
     stroke="None"
     id="g2"
     transform="translate(19.408623,48.934162)">
    <path
       d="m 181,216 c -6.71,-28.53 -4.39,-63.23 -4,-93 0.39,-29.77 2.4,-66.08 -6.7,-92.3 C 161.21,4.47 123.75,-3.7 115,24 102.19,18.12 86.61,27.41 84,41 69.28,37.15 55.52,50.4 62,65 39.84,64.1 24.62,87.25 31,108 c -15.62,3.54 -20.54,22.25 -13,35 -16.47,11.41 -10.74,38.91 8,44 -4.97,9.48 -2.25,21.01 7.31,26.69 9.56,5.69 20.25,-0.21 26.44,9.56 6.19,9.76 19.91,10.38 30.25,9.75 1.43,8.35 7.66,12.12 14.78,15.22 7.11,3.11 17.71,1.3 23.52,-2.92 5.82,-4.22 11.3,-8.48 15.4,-13.6 4.09,-5.12 14.5,-12.71 16.3,-3.7 1.81,9.01 0.96,19.6 1,29 0.04,9.4 0.78,19.06 -1,28 h 25 c -1.29,-15.65 1.28,-31.72 1.02,-46.98 -0.25,-15.25 13.93,-22.72 21.21,-10.25 7.28,12.47 13.04,19.1 26.1,21.9 13.06,2.8 26.48,-5.11 28.67,-17.67 12.18,4.22 26.91,-1.74 29,-15 11.61,2.69 21.34,0.88 30.75,-6.25 9.4,-7.14 -2.36,-23.24 5.17,-27.83 7.54,-4.58 17.98,-12.39 15.08,-22.92 -2.91,-10.52 -5.69,-21.11 -5.22,-31.78 C 337.24,117.56 323.45,113.34 317,110 331.49,90.11 313.58,61.35 289,66 295.11,52.9 282.74,37.73 269,43 268.94,28.72 251.39,15.6 239,26 228.81,-1.48 189.85,11.66 186.78,38.78 183.71,65.9 181.29,100.58 184,129 c 2.71,28.42 5.09,60.2 -3,87 M 168,178 C 167.89,151.15 154.76,131.3 146.01,106.99 137.26,82.68 173.53,58.2 156,34 c 0.46,7.63 -1.11,17.04 -5.77,24.23 -4.66,7.19 -1.01,17.98 -8.23,23.77 -2.97,-17.54 8.2,-38.9 -4,-54 -2.6,5.02 2.37,11.11 1,17 -4.16,-2.74 -3.84,-9.29 -8,-12 -0.97,10.11 8.54,18.2 6,28 -4.41,-2.99 -7.81,-9.23 -11,-14 -2.81,10.03 8.06,15.06 9.93,25.07 C 137.8,82.09 137.11,96.65 139,107 128.84,100.86 120.28,93.08 114.69,82.31 109.11,71.53 115.69,53.04 100,49 99.7,62.24 110.21,71.95 111,85 97.62,80.98 97.52,66.49 90,57 c -2.35,3.89 2.94,8.57 3,13 -5.19,-2.2 -9.72,-6.6 -16,-6 15.86,15.46 37.23,24.09 51,42 -8.24,-1.59 -19.15,-6.45 -26,1 1.92,0.79 6.14,-0.53 9,0 5.73,12.7 17.98,1.37 26.25,6.75 8.26,5.38 11.95,13.98 15.68,23.32 3.73,9.34 7.35,20.07 8.05,30.95 0.69,10.89 2.4,26.32 0.02,36.98 -4.49,-13.42 -15.62,-17.47 -23.75,-29.25 -8.13,-11.77 -8.05,-29.56 -7.25,-42.75 -7.72,14.38 -5.28,29.76 2,44 -10.08,-4.3 -17.2,-6.9 -26.75,-13.25 -9.54,-6.36 -6.51,-20.98 -9.58,-30.42 C 92.6,123.89 78.55,123.56 74.75,114.25 70.96,104.94 60.99,98.59 51,97 c 2.51,9.69 11.05,18.58 22,17 4.32,13.98 19.04,23.18 21,38 -4.25,-8.97 -12.95,-13.19 -23,-13 2.66,12.48 20.61,10.25 24,23 -7.05,-4.3 -21.73,0.18 -25.32,-7.68 C 66.09,146.46 62.18,140 56.25,133.75 50.32,127.5 41.63,125.86 38,118 c -2.01,17.29 26.98,18.61 26,37 -11.89,0.93 -20.17,-6.85 -25,-17 -2.91,5.23 4.39,10.06 6,15 -23.77,0.81 -36.77,-38.65 -8,-42 -2.68,-8.67 -3.38,-22.18 2.31,-29.69 5.68,-7.52 13.73,-14.19 24.36,-10.98 10.63,3.21 -9.45,22.54 3.36,19.69 12.8,-2.84 6.11,-13.63 1.2,-21.25 C 63.32,61.15 65.01,43.46 78,46 90.99,48.54 88.03,35 97.7,29.7 c 9.67,-5.31 16.87,1.49 23.3,8.3 -9.25,-18.9 14.9,-34.37 29.08,-23.08 14.18,11.3 20.06,22.55 20.9,41.1 0.83,18.56 -0.06,42.64 0.02,61.98 0.08,19.34 -1.29,41.29 -3,60 M 234,40 c 6.7,-0.09 6.49,-12.98 14.02,-11.98 7.54,1.01 14.26,0.91 14.91,11.05 0.64,10.15 8.85,7.7 16.74,8.26 7.89,0.56 6.55,12.58 3.56,16.9 -2.99,4.31 -3.23,18.26 5.77,16.77 -6.36,-10.24 6.96,-11.74 13.01,-9.01 6.04,2.74 11.8,6.12 13.3,12.7 1.49,6.59 4.43,14.83 -1.62,21 -6.04,6.18 -2.43,10 5.38,11.24 7.82,1.23 10.86,7.01 12.91,13.09 2.04,6.09 -2.29,12.69 -7.23,16.73 -4.93,4.05 -12.44,8.9 -18.75,5.25 4.6,-1.1 6.84,-6.29 9,-10 -6.45,-0.13 -8.92,6.98 -13.75,10.25 -4.84,3.26 -14.27,3.23 -19.25,2.75 12.51,-7.92 21.98,-20.87 30,-33 -13.73,0.9 -15.35,15.72 -23.3,23.7 -7.96,7.98 -20.08,13.51 -30.7,16.3 3.95,-14.16 22.73,-18.61 22.67,-33.67 -0.06,-15.06 20.92,-18.37 23.33,-33.33 -14.45,0.91 -19.6,14.17 -24.93,25.07 -5.32,10.91 -14.63,20.7 -19.07,31.93 -0.91,-12.23 6.51,-24.32 3,-36 -12.8,10.63 -3.14,29.86 -9.77,42.23 -6.64,12.37 -23.04,13.31 -33.23,20.77 6.77,-18.29 9.64,-39.28 12,-58 -2.38,7.08 -6.44,14.37 -8,22 -3.76,-0.56 -6.04,-4.79 -10,-5 5.09,10.93 9.82,20.75 4.68,32.68 -5.15,11.92 -13.75,15.13 -24.68,20.32 0.36,-7.91 -0.1,-16.49 -1,-24 -0.89,-7.51 0.76,-16.47 1.78,-23.22 1.02,-6.76 3.5,-12.57 7.14,-17.86 3.63,-5.3 7.62,-9.33 12.33,-13.67 4.71,-4.34 14.31,-3.44 19.75,-1.25 5.44,2.19 18.13,-5.86 10.97,-7.97 -7.16,-2.12 -15.03,4.05 -21.97,3.97 12.32,-18.18 37.45,-25.06 51,-42 -5.78,0.99 -10.9,4.16 -16,7 1.09,-3.04 2.62,-5.94 4,-9 -6.72,-1.95 -13.6,8.2 -8,13 -5.7,2.71 -10.61,7.47 -16,11 -2.11,-15.18 9.47,-25.5 10,-40 -14.1,5.68 -13.35,19.5 -12.93,32.07 0.43,12.58 -12.19,19.59 -21.07,25.93 1.11,-10.81 -2.74,-28.37 1,-39 3.73,-10.64 15.43,-19.41 6,-31 -3.99,7.57 -4.96,17.08 -9,24 -2.92,-9.9 0.41,-22.23 -5,-31 -6.58,15.24 5.62,32.38 0,47 C 205.48,62.83 193.28,55.06 192.01,42.99 190.74,30.92 199.89,20.35 212.07,16.07 224.26,11.8 240.26,24.13 234,40 m -43,12 c 5.48,7.95 3.95,17.6 11.25,24.75 7.3,7.16 7.14,20.15 3.75,29.25 -1.21,-4.14 -2.49,-9.23 -6,-12 -5.51,6.58 6.37,15.01 2.69,20.69 -3.67,5.69 -8.07,10.87 -11.69,16.31 -4.52,-25.49 -3.19,-53.75 0,-79 M 37,154 c 0.52,3.85 -5.06,0.39 -6,3 24.84,2.28 56,6.5 78.08,15.92 C 131.16,182.34 153.97,191.5 159,216 146.45,203.3 125.86,204.31 110.33,201.67 94.8,199.03 86.15,181.06 74,174 c 3.12,-0.57 5.76,-2.68 9,-3 -4.59,-1.57 -24.05,-2.41 -22,7 2.05,9.42 17.38,3.35 22.25,9.75 4.86,6.41 13.03,8.1 17.75,14.25 C 85.89,206.21 74.82,195.99 61.77,191.23 48.73,186.47 46.75,169.25 31,170 c 3.6,17.34 26.48,20.77 39,30 -8.84,-0.15 -12.3,-1.04 -23,-1 -10.7,0.04 -5.67,6.55 3.02,6.98 8.7,0.43 15.21,-2.74 23,-1 7.8,1.73 15.04,1.09 21.98,4.02 -3.89,-0.15 -8.19,3.26 -9,7 9.78,-0.98 17.28,-9.45 28,-7 -9.72,10.07 -16.61,17.18 -31,19 -14.39,1.82 -21.13,-15.99 -35,-15 -13.87,0.99 -26.22,-15.7 -14,-26 -6.05,-3.94 -11.95,-5.63 -16.75,-12.25 -4.8,-6.62 -4.27,-14.88 0.01,-22.49 4.28,-7.62 13.04,0.39 19.74,1.74 m 280,28 c -0.34,-7.93 -6.74,-16.22 -15,-17 2.69,6.63 4.9,13.47 8,20 -22.14,-2.59 -39.52,13.38 -61,13 -21.48,-0.39 -41.92,2.99 -59,16 2.41,-9.89 7.6,-12.54 15.25,-19.75 7.64,-7.21 17.1,-2 25.82,0.68 8.73,2.67 20.19,3.52 27.18,-5.68 6.99,-9.2 10.82,-10.56 23.97,-12.03 13.15,-1.47 -2.25,-10.44 -10.9,-3.9 -8.65,6.54 -11.74,9.22 -20.02,14.98 -8.27,5.77 -20.51,2.2 -27.3,-3.3 13.78,-10.44 26.63,-13.41 42.68,-20.32 16.04,-6.92 36.24,-4.6 53.32,-6.68 -0.12,-13.22 17.59,-10.72 16.93,2.07 -0.67,12.79 -9.49,17.73 -19.93,21.93 m -3,5 c 20.9,18.17 -13.28,34.91 -29,24 4.59,6.27 -2.17,13.12 -8.23,15.77 -6.06,2.65 -22.11,-3.07 -12.77,-7.77 -7.63,-1.98 -15.19,-6.32 -20,-13 12.66,2.28 25.28,4.84 38,7 -5.09,-8.7 -21.09,-5.61 -30,-9 10.88,-1.41 22.36,-10.35 31.7,-1.7 9.33,8.66 23.9,3.82 30.3,-4.3 -9.38,4.59 -20.35,-3.09 -31,-1 8.03,-8.23 21.62,-4.63 31,-10 m -99,42 c 6.75,2.87 13.82,4.54 21,6 -5.52,-3.73 -11.37,-8.92 -19.23,-10.77 -7.86,-1.85 -16.36,-7.95 -6.54,-12 9.82,-4.05 14.66,-6.83 24.44,-5.9 9.78,0.93 8.66,9.85 16.08,13.92 7.42,4.07 10.1,12.01 3.5,18 -6.61,5.98 -15.16,7.92 -22.92,5.42 -7.76,-2.5 -13.14,-7.76 -16.33,-14.67 m -65,-8 c -10.77,5.78 -23.79,3.6 -36,4 3.93,8.53 16.97,7.73 25,6 -9.43,15.26 -38.97,20.86 -44,0 9.97,-3.76 13.75,-14.92 23.7,-19.3 9.94,-4.38 23.95,2.12 31.3,9.3 z"
       id="path1" />
    <path
       d="m 270,89 c -3.61,-3.76 -19.05,-1.94 -15.25,4.25 3.81,6.18 13.78,0.56 15.25,-4.25 z m -170,4 c -6.19,-1.56 -12.13,-3.99 -19,-3 0.86,7.44 16.61,12.01 19,3 z m 22,55 c 6.29,-6.66 1.53,-21.36 -8,-25 -1.57,9.64 2.71,17.71 8,25 z m 17,-18 c -2.52,5.53 5.77,20.02 11.74,13.74 5.98,-6.27 -8.93,-10.66 -11.74,-13.74 z m 16,40 c 0.1,-8.07 -7.8,-13.73 -15,-15 -0.05,8.27 8.84,11.74 15,15 z m -52,13 c 5.46,4.36 16.7,12.66 22.91,4.92 6.22,-7.75 -18.49,-5.1 -22.91,-4.92 z"
       id="path2" />
  </g>
</svg>
