<svg xmlns="http://www.w3.org/2000/svg" viewBox="735 0 265 250">
  <path fill="#8C8C6E" d="M784.651 1.064c-3.459 6.518-7.304 13.079-11.31 19.541-4.126 6.652-8.76 13.011-12.553 19.84-8.023 14.45-15.343 29.243-20.088 45.185-3.533 11.872.088 25.006 9.546 29.114 9.313 4.044 19.104 7.533 29.036 9.492 15.372 3.033 31.018 4.748 46.593 6.666 13.498 1.662 27.127 2.358 40.573 4.33 17.555 2.574 35.374 4.344 51.728 12.17 3.408 1.63 5.951 1.477 9.146-1.623 9.397-9.115 18.982-18.158 29.348-26.116 7.497-5.755 16.23-9.979 24.655-14.426 6.097-3.217 12.594-5.677 19.326-8.453.415 1.5.415 2.978.415 4.897-17.571 5.733-33.115 14.865-47.342 26.191-9.067 7.217-17.544 15.175-26.457 22.954 26.173 19.265 27.471 49.247 13.035 72.247-6.902 10.996-15.968 21.102-29.178 24.711-7.466 2.041-15.672 2.4-23.465 1.989-13.732-.725-18.266-10.617-14.124-21.588 4.992-13.222 11.635-26.011 19.041-38.081 8.014-13.064 17.731-25.082 27.203-38.249-9.327-2.372-18.704-5.232-28.277-7.078-13.466-2.598-27.041-4.713-40.637-6.514-8.944-1.185-18.04-1.196-27.014-2.205-9.891-1.111-19.777-2.456-29.561-4.262-11.585-2.138-23.205-4.351-34.532-7.528-8.325-2.336-16.087-6.529-21.202-14.036-1.245-1.823-1.997-4.286-2.138-6.509-.908-14.172.753-27.581 7.291-40.818 9.565-19.362 20.61-37.713 32.514-55.637 1.152-1.734 2.011-3.663 2.753-5.853 1.57-.351 3.395-.351 5.674-.351m141.415 155.457c-.783-.181-1.987-.775-2.283-.475-2.955 3.001-6.171 5.868-8.532 9.309-8.558 12.475-17.322 24.858-25.006 37.868-4.977 8.426-8.704 17.702-12.07 26.934-2.796 7.67.3 13.838 7.345 15.095 5.5.981 11.5 1.211 16.945.114 25.581-5.152 41.219-28.727 42.726-51.024.99-14.647-4.551-28.78-19.128-37.819"/>
</svg>
