<svg xmlns="http://www.w3.org/2000/svg" xmlns:xlink="http://www.w3.org/1999/xlink" width="1000" zoomAndPan="magnify" viewBox="0 0 750 749.999995" height="1000" preserveAspectRatio="xMidYMid meet" version="1.0"><defs><clipPath id="0346594746"><path d="M 578.273438 661.488281 L 750 661.488281 L 750 749.988281 L 578.273438 749.988281 Z M 578.273438 661.488281 " clip-rule="nonzero"/></clipPath></defs><path stroke-linecap="round" transform="matrix(1.716778, 0, 0, 1.716491, -2095.794039, -33.84482)" fill="none" stroke-linejoin="round" d="M 1222.500967 440.7003 C 1221.329168 439.769531 1231.929967 438.531541 1232.910637 438.326726 C 1239.149614 437.038669 1245.279374 435.336432 1251.199803 432.971961 C 1274.160237 423.803092 1296.640575 408.542125 1308.010438 385.926036 C 1337.410078 327.474212 1218.489546 276.058908 1302.749857 240.844443 C 1339.300884 225.569822 1378.539085 234.224378 1401.190073 266.51227 C 1416.209579 287.917676 1421.049222 338.069956 1390.059121 349.532749 C 1375.000935 355.105983 1364.240862 340.859987 1362.040611 327.524277 C 1358.809631 308.050956 1369.069129 289.060087 1383.05108 276.134007 C 1426.7899 235.687665 1496.499425 212.570919 1511.869332 148.361527 C 1519.380222 116.995301 1509.150304 80.344858 1487.400349 56.766141 C 1450.840221 17.129955 1420.439432 52.533305 1435.019797 96.395499 C 1460.86991 174.168172 1537.869618 107.692165 1586.370719 98.486884 C 1633.078855 89.620686 1661.490998 108.527353 1654.910721 157.614597 " stroke="#6b705c" stroke-width="6" stroke-opacity="1" stroke-miterlimit="1.5"/><g clip-path="url(#0346594746)">></g></svg>