<?xml version="1.0"?>
<svg width="350" height="289" xmlns="http://www.w3.org/2000/svg" xmlns:svg="http://www.w3.org/2000/svg">
 <g class="layer">
  <title>Layer 1</title>
  <g fill="None" fill-opacity="0" id="svg_3" stroke="#000000" stroke-opacity="1" stroke-width="0.3">
   <path d="m181,216c-6.71,-28.53 -4.39,-63.23 -4,-93c0.39,-29.77 2.4,-66.08 -6.7,-92.3c-9.09,-26.23 -46.55,-34.4 -55.3,-6.7c-12.81,-5.88 -28.39,3.41 -31,17c-14.72,-3.85 -28.48,9.4 -22,24c-22.16,-0.9 -37.38,22.25 -31,43c-15.62,3.54 -20.54,22.25 -13,35c-16.47,11.41 -10.74,38.91 8,44c-4.97,9.48 -2.25,21.01 7.31,26.69c9.56,5.69 20.25,-0.21 26.44,9.56c6.19,9.76 19.91,10.38 30.25,9.75c1.43,8.35 7.66,12.12 14.78,15.22c7.11,3.11 17.71,1.3 23.52,-2.92c5.82,-4.22 11.3,-8.48 15.4,-13.6c4.09,-5.12 14.5,-12.71 16.3,-3.7c1.81,9.01 0.96,19.6 1,29c0.04,9.4 0.78,19.06 -1,28c8.33,0 16.67,0 25,0c-1.29,-15.65 1.28,-31.72 1.02,-46.98c-0.25,-15.25 13.93,-22.72 21.21,-10.25c7.28,12.47 13.04,19.1 26.1,21.9c13.06,2.8 26.48,-5.11 28.67,-17.67c12.18,4.22 26.91,-1.74 29,-15c11.61,2.69 21.34,0.88 30.75,-6.25c9.4,-7.14 -2.36,-23.24 5.17,-27.83c7.54,-4.58 17.98,-12.39 15.08,-22.92c-2.91,-10.52 -5.69,-21.11 -5.22,-31.78c0.46,-10.66 -13.33,-14.88 -19.78,-18.22c14.49,-19.89 -3.42,-48.65 -28,-44c6.11,-13.1 -6.26,-28.27 -20,-23c-0.06,-14.28 -17.61,-27.4 -30,-17c-10.19,-27.48 -49.15,-14.34 -52.22,12.78c-3.07,27.12 -5.49,61.8 -2.78,90.22c2.71,28.42 5.09,60.2 -3,87m-13,-38c-0.11,-26.85 -13.24,-46.7 -21.99,-71.01c-8.75,-24.31 27.52,-48.79 9.99,-72.99c0.46,7.63 -1.11,17.04 -5.77,24.23c-4.66,7.19 -1.01,17.98 -8.23,23.77c-2.97,-17.54 8.2,-38.9 -4,-54c-2.6,5.02 2.37,11.11 1,17c-4.16,-2.74 -3.84,-9.29 -8,-12c-0.97,10.11 8.54,18.2 6,28c-4.41,-2.99 -7.81,-9.23 -11,-14c-2.81,10.03 8.06,15.06 9.93,25.07c1.87,10.02 1.18,24.58 3.07,34.93c-10.16,-6.14 -18.72,-13.92 -24.31,-24.69c-5.58,-10.78 1,-29.27 -14.69,-33.31c-0.3,13.24 10.21,22.95 11,36c-13.38,-4.02 -13.48,-18.51 -21,-28c-2.35,3.89 2.94,8.57 3,13c-5.19,-2.2 -9.72,-6.6 -16,-6c15.86,15.46 37.23,24.09 51,42c-8.24,-1.59 -19.15,-6.45 -26,1c1.92,0.79 6.14,-0.53 9,0c5.73,12.7 17.98,1.37 26.25,6.75c8.26,5.38 11.95,13.98 15.68,23.32c3.73,9.34 7.35,20.07 8.05,30.95c0.69,10.89 2.4,26.32 0.02,36.98c-4.49,-13.42 -15.62,-17.47 -23.75,-29.25c-8.13,-11.77 -8.05,-29.56 -7.25,-42.75c-7.72,14.38 -5.28,29.76 2,44c-10.08,-4.3 -17.2,-6.9 -26.75,-13.25c-9.54,-6.36 -6.51,-20.98 -9.58,-30.42c-3.07,-9.44 -17.12,-9.77 -20.92,-19.08c-3.79,-9.31 -13.76,-15.66 -23.75,-17.25c2.51,9.69 11.05,18.58 22,17c4.32,13.98 19.04,23.18 21,38c-4.25,-8.97 -12.95,-13.19 -23,-13c2.66,12.48 20.61,10.25 24,23c-7.05,-4.3 -21.73,0.18 -25.32,-7.68c-3.59,-7.86 -7.5,-14.32 -13.43,-20.57c-5.93,-6.25 -14.62,-7.89 -18.25,-15.75c-2.01,17.29 26.98,18.61 26,37c-11.89,0.93 -20.17,-6.85 -25,-17c-2.91,5.23 4.39,10.06 6,15c-23.77,0.81 -36.77,-38.65 -8,-42c-2.68,-8.67 -3.38,-22.18 2.31,-29.69c5.68,-7.52 13.73,-14.19 24.36,-10.98c10.63,3.21 -9.45,22.54 3.36,19.69c12.8,-2.84 6.11,-13.63 1.2,-21.25c-4.91,-7.62 -3.22,-25.31 9.77,-22.77c12.99,2.54 10.03,-11 19.7,-16.3c9.67,-5.31 16.87,1.49 23.3,8.3c-9.25,-18.9 14.9,-34.37 29.08,-23.08c14.18,11.3 20.06,22.55 20.9,41.1c0.83,18.56 -0.06,42.64 0.02,61.98c0.08,19.34 -1.29,41.29 -3,60m66,-138c6.7,-0.09 6.49,-12.98 14.02,-11.98c7.54,1.01 14.26,0.91 14.91,11.05c0.64,10.15 8.85,7.7 16.74,8.26c7.89,0.56 6.55,12.58 3.56,16.9c-2.99,4.31 -3.23,18.26 5.77,16.77c-6.36,-10.24 6.96,-11.74 13.01,-9.01c6.04,2.74 11.8,6.12 13.3,12.7c1.49,6.59 4.43,14.83 -1.62,21c-6.04,6.18 -2.43,10 5.38,11.24c7.82,1.23 10.86,7.01 12.91,13.09c2.04,6.09 -2.29,12.69 -7.23,16.73c-4.93,4.05 -12.44,8.9 -18.75,5.25c4.6,-1.1 6.84,-6.29 9,-10c-6.45,-0.13 -8.92,6.98 -13.75,10.25c-4.84,3.26 -14.27,3.23 -19.25,2.75c12.51,-7.92 21.98,-20.87 30,-33c-13.73,0.9 -15.35,15.72 -23.3,23.7c-7.96,7.98 -20.08,13.51 -30.7,16.3c3.95,-14.16 22.73,-18.61 22.67,-33.67c-0.06,-15.06 20.92,-18.37 23.33,-33.33c-14.45,0.91 -19.6,14.17 -24.93,25.07c-5.32,10.91 -14.63,20.7 -19.07,31.93c-0.91,-12.23 6.51,-24.32 3,-36c-12.8,10.63 -3.14,29.86 -9.77,42.23c-6.64,12.37 -23.04,13.31 -33.23,20.77c6.77,-18.29 9.64,-39.28 12,-58c-2.38,7.08 -6.44,14.37 -8,22c-3.76,-0.56 -6.04,-4.79 -10,-5c5.09,10.93 9.82,20.75 4.68,32.68c-5.15,11.92 -13.75,15.13 -24.68,20.32c0.36,-7.91 -0.1,-16.49 -1,-24c-0.89,-7.51 0.76,-16.47 1.78,-23.22c1.02,-6.76 3.5,-12.57 7.14,-17.86c3.63,-5.3 7.62,-9.33 12.33,-13.67c4.71,-4.34 14.31,-3.44 19.75,-1.25c5.44,2.19 18.13,-5.86 10.97,-7.97c-7.16,-2.12 -15.03,4.05 -21.97,3.97c12.32,-18.18 37.45,-25.06 51,-42c-5.78,0.99 -10.9,4.16 -16,7c1.09,-3.04 2.62,-5.94 4,-9c-6.72,-1.95 -13.6,8.2 -8,13c-5.7,2.71 -10.61,7.47 -16,11c-2.11,-15.18 9.47,-25.5 10,-40c-14.1,5.68 -13.35,19.5 -12.93,32.07c0.43,12.58 -12.19,19.59 -21.07,25.93c1.11,-10.81 -2.74,-28.37 1,-39c3.73,-10.64 15.43,-19.41 6,-31c-3.99,7.57 -4.96,17.08 -9,24c-2.92,-9.9 0.41,-22.23 -5,-31c-6.58,15.24 5.62,32.38 0,47c-1.52,-12.17 -13.72,-19.94 -14.99,-32.01c-1.27,-12.07 7.88,-22.64 20.06,-26.92c12.19,-4.27 28.19,8.06 21.93,23.93m-43,12c5.48,7.95 3.95,17.6 11.25,24.75c7.3,7.16 7.14,20.15 3.75,29.25c-1.21,-4.14 -2.49,-9.23 -6,-12c-5.51,6.58 6.37,15.01 2.69,20.69c-3.67,5.69 -8.07,10.87 -11.69,16.31c-4.52,-25.49 -3.19,-53.75 0,-79m-154,102c0.52,3.85 -5.06,0.39 -6,3c24.84,2.28 56,6.5 78.08,15.92c22.08,9.42 44.89,18.58 49.92,43.08c-12.55,-12.7 -33.14,-11.69 -48.67,-14.33c-15.53,-2.64 -24.18,-20.61 -36.33,-27.67c3.12,-0.57 5.76,-2.68 9,-3c-4.59,-1.57 -24.05,-2.41 -22,7c2.05,9.42 17.38,3.35 22.25,9.75c4.86,6.41 13.03,8.1 17.75,14.25c-15.11,4.21 -26.18,-6.01 -39.23,-10.77c-13.04,-4.76 -15.02,-21.98 -30.77,-21.23c3.6,17.34 26.48,20.77 39,30c-8.84,-0.15 -12.3,-1.04 -23,-1c-10.7,0.04 -5.67,6.55 3.02,6.98c8.7,0.43 15.21,-2.74 23,-1c7.8,1.73 15.04,1.09 21.98,4.02c-3.89,-0.15 -8.19,3.26 -9,7c9.78,-0.98 17.28,-9.45 28,-7c-9.72,10.07 -16.61,17.18 -31,19c-14.39,1.82 -21.13,-15.99 -35,-15c-13.87,0.99 -26.22,-15.7 -14,-26c-6.05,-3.94 -11.95,-5.63 -16.75,-12.25c-4.8,-6.62 -4.27,-14.88 0.01,-22.49c4.28,-7.62 13.04,0.39 19.74,1.74m280,28c-0.34,-7.93 -6.74,-16.22 -15,-17c2.69,6.63 4.9,13.47 8,20c-22.14,-2.59 -39.52,13.38 -61,13c-21.48,-0.39 -41.92,2.99 -59,16c2.41,-9.89 7.6,-12.54 15.25,-19.75c7.64,-7.21 17.1,-2 25.82,0.68c8.73,2.67 20.19,3.52 27.18,-5.68c6.99,-9.2 10.82,-10.56 23.97,-12.03c13.15,-1.47 -2.25,-10.44 -10.9,-3.9c-8.65,6.54 -11.74,9.22 -20.02,14.98c-8.27,5.77 -20.51,2.2 -27.3,-3.3c13.78,-10.44 26.63,-13.41 42.68,-20.32c16.04,-6.92 36.24,-4.6 53.32,-6.68c-0.12,-13.22 17.59,-10.72 16.93,2.07c-0.67,12.79 -9.49,17.73 -19.93,21.93m-3,5c20.9,18.17 -13.28,34.91 -29,24c4.59,6.27 -2.17,13.12 -8.23,15.77c-6.06,2.65 -22.11,-3.07 -12.77,-7.77c-7.63,-1.98 -15.19,-6.32 -20,-13c12.66,2.28 25.28,4.84 38,7c-5.09,-8.7 -21.09,-5.61 -30,-9c10.88,-1.41 22.36,-10.35 31.7,-1.7c9.33,8.66 23.9,3.82 30.3,-4.3c-9.38,4.59 -20.35,-3.09 -31,-1c8.03,-8.23 21.62,-4.63 31,-10m-99,42c6.75,2.87 13.82,4.54 21,6c-5.52,-3.73 -11.37,-8.92 -19.23,-10.77c-7.86,-1.85 -16.36,-7.95 -6.54,-12c9.82,-4.05 14.66,-6.83 24.44,-5.9c9.78,0.93 8.66,9.85 16.08,13.92c7.42,4.07 10.1,12.01 3.5,18c-6.61,5.98 -15.16,7.92 -22.92,5.42c-7.76,-2.5 -13.14,-7.76 -16.33,-14.67m-65,-8c-10.77,5.78 -23.79,3.6 -36,4c3.93,8.53 16.97,7.73 25,6c-9.43,15.26 -38.97,20.86 -44,0c9.97,-3.76 13.75,-14.92 23.7,-19.3c9.94,-4.38 23.95,2.12 31.3,9.3z" id="svg_4"/>
  </g>
  <g fill="None" fill-opacity="0" id="svg_11" stroke="#000000" stroke-opacity="1" stroke-width="0.3">
   <path d="m270,89c-3.61,-3.76 -19.05,-1.94 -15.25,4.25c3.81,6.18 13.78,0.56 15.25,-4.25z" id="svg_12"/>
  </g>
  <g fill="None" fill-opacity="0" id="svg_13" stroke="#000000" stroke-opacity="1" stroke-width="0.3">
   <path d="m100,93c-6.19,-1.56 -12.13,-3.99 -19,-3c0.86,7.44 16.61,12.01 19,3z" id="svg_14"/>
  </g>
  <g fill="None" fill-opacity="0" id="svg_15" stroke="#000000" stroke-opacity="1" stroke-width="0.3">
   <path d="m122,148c6.29,-6.66 1.53,-21.36 -8,-25c-1.57,9.64 2.71,17.71 8,25z" id="svg_16"/>
  </g>
  <g fill="None" fill-opacity="0" id="svg_17" stroke="#000000" stroke-opacity="1" stroke-width="0.3">
   <path d="m139,130c-2.52,5.53 5.77,20.02 11.74,13.74c5.98,-6.27 -8.93,-10.66 -11.74,-13.74z" id="svg_18"/>
  </g>
  <g fill="None" fill-opacity="0" id="svg_23" stroke="#000000" stroke-opacity="1" stroke-width="0.3">
   <path d="m155,170c0.1,-8.07 -7.8,-13.73 -15,-15c-0.05,8.27 8.84,11.74 15,15z" id="svg_24"/>
  </g>
  <g fill="None" fill-opacity="0" id="svg_25" stroke="#000000" stroke-opacity="1" stroke-width="0.3">
   <path d="m103,183c5.46,4.36 16.7,12.66 22.91,4.92c6.22,-7.75 -18.49,-5.1 -22.91,-4.92z" id="svg_26"/>
  </g>
  <g fill="#000000" fill-opacity="1" id="svg_35" stroke="None">
   <path d="m181,216c-6.71,-28.53 -4.39,-63.23 -4,-93c0.39,-29.77 2.4,-66.08 -6.7,-92.3c-9.09,-26.23 -46.55,-34.4 -55.3,-6.7c-12.81,-5.88 -28.39,3.41 -31,17c-14.72,-3.85 -28.48,9.4 -22,24c-22.16,-0.9 -37.38,22.25 -31,43c-15.62,3.54 -20.54,22.25 -13,35c-16.47,11.41 -10.74,38.91 8,44c-4.97,9.48 -2.25,21.01 7.31,26.69c9.56,5.69 20.25,-0.21 26.44,9.56c6.19,9.76 19.91,10.38 30.25,9.75c1.43,8.35 7.66,12.12 14.78,15.22c7.11,3.11 17.71,1.3 23.52,-2.92c5.82,-4.22 11.3,-8.48 15.4,-13.6c4.09,-5.12 14.5,-12.71 16.3,-3.7c1.81,9.01 0.96,19.6 1,29c0.04,9.4 0.78,19.06 -1,28c8.33,0 16.67,0 25,0c-1.29,-15.65 1.28,-31.72 1.02,-46.98c-0.25,-15.25 13.93,-22.72 21.21,-10.25c7.28,12.47 13.04,19.1 26.1,21.9c13.06,2.8 26.48,-5.11 28.67,-17.67c12.18,4.22 26.91,-1.74 29,-15c11.61,2.69 21.34,0.88 30.75,-6.25c9.4,-7.14 -2.36,-23.24 5.17,-27.83c7.54,-4.58 17.98,-12.39 15.08,-22.92c-2.91,-10.52 -5.69,-21.11 -5.22,-31.78c0.46,-10.66 -13.33,-14.88 -19.78,-18.22c14.49,-19.89 -3.42,-48.65 -28,-44c6.11,-13.1 -6.26,-28.27 -20,-23c-0.06,-14.28 -17.61,-27.4 -30,-17c-10.19,-27.48 -49.15,-14.34 -52.22,12.78c-3.07,27.12 -5.49,61.8 -2.78,90.22c2.71,28.42 5.09,60.2 -3,87m-13,-38c-0.11,-26.85 -13.24,-46.7 -21.99,-71.01c-8.75,-24.31 27.52,-48.79 9.99,-72.99c0.46,7.63 -1.11,17.04 -5.77,24.23c-4.66,7.19 -1.01,17.98 -8.23,23.77c-2.97,-17.54 8.2,-38.9 -4,-54c-2.6,5.02 2.37,11.11 1,17c-4.16,-2.74 -3.84,-9.29 -8,-12c-0.97,10.11 8.54,18.2 6,28c-4.41,-2.99 -7.81,-9.23 -11,-14c-2.81,10.03 8.06,15.06 9.93,25.07c1.87,10.02 1.18,24.58 3.07,34.93c-10.16,-6.14 -18.72,-13.92 -24.31,-24.69c-5.58,-10.78 1,-29.27 -14.69,-33.31c-0.3,13.24 10.21,22.95 11,36c-13.38,-4.02 -13.48,-18.51 -21,-28c-2.35,3.89 2.94,8.57 3,13c-5.19,-2.2 -9.72,-6.6 -16,-6c15.86,15.46 37.23,24.09 51,42c-8.24,-1.59 -19.15,-6.45 -26,1c1.92,0.79 6.14,-0.53 9,0c5.73,12.7 17.98,1.37 26.25,6.75c8.26,5.38 11.95,13.98 15.68,23.32c3.73,9.34 7.35,20.07 8.05,30.95c0.69,10.89 2.4,26.32 0.02,36.98c-4.49,-13.42 -15.62,-17.47 -23.75,-29.25c-8.13,-11.77 -8.05,-29.56 -7.25,-42.75c-7.72,14.38 -5.28,29.76 2,44c-10.08,-4.3 -17.2,-6.9 -26.75,-13.25c-9.54,-6.36 -6.51,-20.98 -9.58,-30.42c-3.07,-9.44 -17.12,-9.77 -20.92,-19.08c-3.79,-9.31 -13.76,-15.66 -23.75,-17.25c2.51,9.69 11.05,18.58 22,17c4.32,13.98 19.04,23.18 21,38c-4.25,-8.97 -12.95,-13.19 -23,-13c2.66,12.48 20.61,10.25 24,23c-7.05,-4.3 -21.73,0.18 -25.32,-7.68c-3.59,-7.86 -7.5,-14.32 -13.43,-20.57c-5.93,-6.25 -14.62,-7.89 -18.25,-15.75c-2.01,17.29 26.98,18.61 26,37c-11.89,0.93 -20.17,-6.85 -25,-17c-2.91,5.23 4.39,10.06 6,15c-23.77,0.81 -36.77,-38.65 -8,-42c-2.68,-8.67 -3.38,-22.18 2.31,-29.69c5.68,-7.52 13.73,-14.19 24.36,-10.98c10.63,3.21 -9.45,22.54 3.36,19.69c12.8,-2.84 6.11,-13.63 1.2,-21.25c-4.91,-7.62 -3.22,-25.31 9.77,-22.77c12.99,2.54 10.03,-11 19.7,-16.3c9.67,-5.31 16.87,1.49 23.3,8.3c-9.25,-18.9 14.9,-34.37 29.08,-23.08c14.18,11.3 20.06,22.55 20.9,41.1c0.83,18.56 -0.06,42.64 0.02,61.98c0.08,19.34 -1.29,41.29 -3,60m66,-138c6.7,-0.09 6.49,-12.98 14.02,-11.98c7.54,1.01 14.26,0.91 14.91,11.05c0.64,10.15 8.85,7.7 16.74,8.26c7.89,0.56 6.55,12.58 3.56,16.9c-2.99,4.31 -3.23,18.26 5.77,16.77c-6.36,-10.24 6.96,-11.74 13.01,-9.01c6.04,2.74 11.8,6.12 13.3,12.7c1.49,6.59 4.43,14.83 -1.62,21c-6.04,6.18 -2.43,10 5.38,11.24c7.82,1.23 10.86,7.01 12.91,13.09c2.04,6.09 -2.29,12.69 -7.23,16.73c-4.93,4.05 -12.44,8.9 -18.75,5.25c4.6,-1.1 6.84,-6.29 9,-10c-6.45,-0.13 -8.92,6.98 -13.75,10.25c-4.84,3.26 -14.27,3.23 -19.25,2.75c12.51,-7.92 21.98,-20.87 30,-33c-13.73,0.9 -15.35,15.72 -23.3,23.7c-7.96,7.98 -20.08,13.51 -30.7,16.3c3.95,-14.16 22.73,-18.61 22.67,-33.67c-0.06,-15.06 20.92,-18.37 23.33,-33.33c-14.45,0.91 -19.6,14.17 -24.93,25.07c-5.32,10.91 -14.63,20.7 -19.07,31.93c-0.91,-12.23 6.51,-24.32 3,-36c-12.8,10.63 -3.14,29.86 -9.77,42.23c-6.64,12.37 -23.04,13.31 -33.23,20.77c6.77,-18.29 9.64,-39.28 12,-58c-2.38,7.08 -6.44,14.37 -8,22c-3.76,-0.56 -6.04,-4.79 -10,-5c5.09,10.93 9.82,20.75 4.68,32.68c-5.15,11.92 -13.75,15.13 -24.68,20.32c0.36,-7.91 -0.1,-16.49 -1,-24c-0.89,-7.51 0.76,-16.47 1.78,-23.22c1.02,-6.76 3.5,-12.57 7.14,-17.86c3.63,-5.3 7.62,-9.33 12.33,-13.67c4.71,-4.34 14.31,-3.44 19.75,-1.25c5.44,2.19 18.13,-5.86 10.97,-7.97c-7.16,-2.12 -15.03,4.05 -21.97,3.97c12.32,-18.18 37.45,-25.06 51,-42c-5.78,0.99 -10.9,4.16 -16,7c1.09,-3.04 2.62,-5.94 4,-9c-6.72,-1.95 -13.6,8.2 -8,13c-5.7,2.71 -10.61,7.47 -16,11c-2.11,-15.18 9.47,-25.5 10,-40c-14.1,5.68 -13.35,19.5 -12.93,32.07c0.43,12.58 -12.19,19.59 -21.07,25.93c1.11,-10.81 -2.74,-28.37 1,-39c3.73,-10.64 15.43,-19.41 6,-31c-3.99,7.57 -4.96,17.08 -9,24c-2.92,-9.9 0.41,-22.23 -5,-31c-6.58,15.24 5.62,32.38 0,47c-1.52,-12.17 -13.72,-19.94 -14.99,-32.01c-1.27,-12.07 7.88,-22.64 20.06,-26.92c12.19,-4.27 28.19,8.06 21.93,23.93m-43,12c5.48,7.95 3.95,17.6 11.25,24.75c7.3,7.16 7.14,20.15 3.75,29.25c-1.21,-4.14 -2.49,-9.23 -6,-12c-5.51,6.58 6.37,15.01 2.69,20.69c-3.67,5.69 -8.07,10.87 -11.69,16.31c-4.52,-25.49 -3.19,-53.75 0,-79m-154,102c0.52,3.85 -5.06,0.39 -6,3c24.84,2.28 56,6.5 78.08,15.92c22.08,9.42 44.89,18.58 49.92,43.08c-12.55,-12.7 -33.14,-11.69 -48.67,-14.33c-15.53,-2.64 -24.18,-20.61 -36.33,-27.67c3.12,-0.57 5.76,-2.68 9,-3c-4.59,-1.57 -24.05,-2.41 -22,7c2.05,9.42 17.38,3.35 22.25,9.75c4.86,6.41 13.03,8.1 17.75,14.25c-15.11,4.21 -26.18,-6.01 -39.23,-10.77c-13.04,-4.76 -15.02,-21.98 -30.77,-21.23c3.6,17.34 26.48,20.77 39,30c-8.84,-0.15 -12.3,-1.04 -23,-1c-10.7,0.04 -5.67,6.55 3.02,6.98c8.7,0.43 15.21,-2.74 23,-1c7.8,1.73 15.04,1.09 21.98,4.02c-3.89,-0.15 -8.19,3.26 -9,7c9.78,-0.98 17.28,-9.45 28,-7c-9.72,10.07 -16.61,17.18 -31,19c-14.39,1.82 -21.13,-15.99 -35,-15c-13.87,0.99 -26.22,-15.7 -14,-26c-6.05,-3.94 -11.95,-5.63 -16.75,-12.25c-4.8,-6.62 -4.27,-14.88 0.01,-22.49c4.28,-7.62 13.04,0.39 19.74,1.74m280,28c-0.34,-7.93 -6.74,-16.22 -15,-17c2.69,6.63 4.9,13.47 8,20c-22.14,-2.59 -39.52,13.38 -61,13c-21.48,-0.39 -41.92,2.99 -59,16c2.41,-9.89 7.6,-12.54 15.25,-19.75c7.64,-7.21 17.1,-2 25.82,0.68c8.73,2.67 20.19,3.52 27.18,-5.68c6.99,-9.2 10.82,-10.56 23.97,-12.03c13.15,-1.47 -2.25,-10.44 -10.9,-3.9c-8.65,6.54 -11.74,9.22 -20.02,14.98c-8.27,5.77 -20.51,2.2 -27.3,-3.3c13.78,-10.44 26.63,-13.41 42.68,-20.32c16.04,-6.92 36.24,-4.6 53.32,-6.68c-0.12,-13.22 17.59,-10.72 16.93,2.07c-0.67,12.79 -9.49,17.73 -19.93,21.93m-3,5c20.9,18.17 -13.28,34.91 -29,24c4.59,6.27 -2.17,13.12 -8.23,15.77c-6.06,2.65 -22.11,-3.07 -12.77,-7.77c-7.63,-1.98 -15.19,-6.32 -20,-13c12.66,2.28 25.28,4.84 38,7c-5.09,-8.7 -21.09,-5.61 -30,-9c10.88,-1.41 22.36,-10.35 31.7,-1.7c9.33,8.66 23.9,3.82 30.3,-4.3c-9.38,4.59 -20.35,-3.09 -31,-1c8.03,-8.23 21.62,-4.63 31,-10m-99,42c6.75,2.87 13.82,4.54 21,6c-5.52,-3.73 -11.37,-8.92 -19.23,-10.77c-7.86,-1.85 -16.36,-7.95 -6.54,-12c9.82,-4.05 14.66,-6.83 24.44,-5.9c9.78,0.93 8.66,9.85 16.08,13.92c7.42,4.07 10.1,12.01 3.5,18c-6.61,5.98 -15.16,7.92 -22.92,5.42c-7.76,-2.5 -13.14,-7.76 -16.33,-14.67m-65,-8c-10.77,5.78 -23.79,3.6 -36,4c3.93,8.53 16.97,7.73 25,6c-9.43,15.26 -38.97,20.86 -44,0c9.97,-3.76 13.75,-14.92 23.7,-19.3c9.94,-4.38 23.95,2.12 31.3,9.3z" fill="#1f221c" id="svg_36"/>
  </g>
  <g fill="#000000" id="svg_43" stroke="None" transform="matrix(1 0 0 1 0 0)">
   <path d="m270,89c-3.61,-3.76 -19.05,-1.94 -15.25,4.25c3.81,6.18 13.78,0.56 15.25,-4.25z" fill="#1f221c" id="svg_44"/>
  </g>
  <g fill="#000000" id="svg_45" stroke="None" transform="matrix(1 0 0 1 0 0)">
   <path d="m100,93c-6.19,-1.56 -12.13,-3.99 -19,-3c0.86,7.44 16.61,12.01 19,3z" fill="#1f221c" id="svg_46"/>
  </g>
  <g fill="#000000" id="svg_47" stroke="None" transform="matrix(1 0 0 1 0 0)">
   <path d="m122,148c6.29,-6.66 1.53,-21.36 -8,-25c-1.57,9.64 2.71,17.71 8,25z" fill="#1f221c" id="svg_48"/>
  </g>
  <g fill="#000000" id="svg_49" stroke="None" transform="matrix(1 0 0 1 0 0)">
   <path d="m139,130c-2.52,5.53 5.77,20.02 11.74,13.74c5.98,-6.27 -8.93,-10.66 -11.74,-13.74z" fill="#1f221c" id="svg_50"/>
  </g>
  <g fill="#000000" id="svg_55" stroke="None" transform="matrix(1 0 0 1 0 0)">
   <path d="m155,170c0.1,-8.07 -7.8,-13.73 -15,-15c-0.05,8.27 8.84,11.74 15,15z" fill="#1f221c" id="svg_56"/>
  </g>
  <g fill="#000000" id="svg_57" stroke="None" transform="matrix(1 0 0 1 0 0)">
   <path d="m103,183c5.46,4.36 16.7,12.66 22.91,4.92c6.22,-7.75 -18.49,-5.1 -22.91,-4.92z" fill="#1f221c" id="svg_58"/>
  </g>
 </g>
</svg>