<svg xmlns="http://www.w3.org/2000/svg" xmlns:xlink="http://www.w3.org/1999/xlink" width="940" zoomAndPan="magnify" viewBox="0 0 705 591.000005" height="788" preserveAspectRatio="xMidYMid meet" version="1.0"><path fill="#e08f8f" d="M 207.191406 188 C 360.175781 146.785156 317.484375 196.777344 396.238281 101.246094 C 471.519531 9.921875 581.964844 43.070312 560.496094 163.851562 C 544.679688 252.867188 497.269531 278.894531 589.179688 320.058594 C 629.855469 338.273438 679.398438 374.257812 679.648438 417.378906 C 679.867188 454.933594 641.765625 477.328125 604.875 481.210938 C 591.238281 482.644531 531.300781 462.398438 434.730469 534.703125 C 221.417969 694.414062 344.246094 415.703125 153.15625 401.320312 C 25.070312 391.679688 100.816406 216.660156 207.191406 188 Z M 207.191406 188 " fill-opacity="1" fill-rule="nonzero"/><path fill="#efe699" d="M 463.003906 14.933594 C 432.929688 16.132812 399.144531 33.296875 370.589844 67.941406 C 350.898438 91.828125 338.796875 106.601562 329.492188 115.835938 C 320.191406 125.066406 313.910156 128.714844 305.109375 130.925781 C 287.507812 135.347656 259.375 133.289062 182.710938 153.941406 C 128.527344 168.539062 82.675781 219.910156 66.199219 269.21875 C 57.960938 293.871094 57.046875 318.164062 66.679688 337.132812 C 76.316406 356.105469 96.542969 369.296875 129.097656 371.746094 C 176.300781 375.300781 203.65625 394.949219 222.039062 420.183594 C 240.417969 445.417969 249.617188 476.378906 259.589844 502.265625 C 264.578125 515.210938 269.757812 526.902344 276.566406 535.996094 C 283.375 545.09375 291.964844 551.601562 303.320312 553.660156 C 326.03125 557.78125 358.710938 544.738281 412.210938 504.683594 C 460.234375 468.726562 498.960938 455.890625 527.34375 451.789062 C 541.535156 449.738281 553.144531 449.875 562.089844 450.433594 C 571.035156 450.992188 577.089844 452.066406 581.230469 451.628906 C 600.046875 449.648438 619.148438 442.984375 633.679688 431.886719 C 648.207031 420.789062 658.164062 405.066406 658.050781 385.511719 C 657.917969 363.082031 645.027344 342.785156 627.261719 325.871094 C 609.5 308.960938 586.761719 295.316406 566.230469 286.121094 C 543.398438 275.894531 529.410156 266.648438 521.550781 257.464844 C 513.691406 248.28125 511.699219 239.246094 512.828125 228.28125 C 515.082031 206.347656 530.890625 177.253906 538.863281 132.398438 C 549.71875 71.308594 527 31.367188 491.515625 19 C 482.644531 15.90625 473.03125 14.53125 463.003906 14.933594 Z M 463.132812 19.515625 C 472.648438 19.125 481.714844 20.421875 490.011719 23.316406 C 523.203125 34.882812 544.972656 71.910156 534.363281 131.601562 C 526.515625 175.757812 510.710938 204.1875 508.28125 227.8125 C 507.070312 239.625 509.472656 250.378906 518.078125 260.433594 C 526.683594 270.492188 541.234375 279.933594 564.363281 290.292969 C 584.503906 299.3125 606.871094 312.769531 624.113281 329.183594 C 641.351562 345.597656 653.359375 364.851562 653.480469 385.539062 C 653.585938 403.542969 644.597656 417.796875 630.90625 428.253906 C 617.21875 438.710938 598.824219 445.183594 580.75 447.085938 C 578.070312 447.367188 571.519531 446.445312 562.375 445.871094 C 553.226562 445.300781 541.257812 445.160156 526.691406 447.265625 C 497.550781 451.476562 458.023438 464.675781 409.476562 501.023438 C 356.316406 540.824219 324.359375 552.832031 304.136719 549.164062 C 294.023438 547.332031 286.570312 541.734375 280.226562 533.257812 C 273.878906 524.78125 268.789062 513.4375 263.855469 500.625 C 253.984375 475.003906 244.730469 443.570312 225.730469 417.492188 C 206.734375 391.410156 177.78125 370.828125 129.441406 367.1875 C 97.953125 364.816406 79.617188 352.515625 70.753906 335.0625 C 61.894531 317.613281 62.550781 294.554688 70.53125 270.664062 C 86.5 222.886719 131.710938 172.417969 183.898438 158.355469 C 260.21875 137.792969 287.234375 140.125 306.222656 135.359375 C 315.714844 132.972656 323.089844 128.628906 332.710938 119.078125 C 342.335938 109.527344 354.429688 94.730469 374.113281 70.847656 C 402.019531 37 434.589844 20.679688 463.132812 19.515625 Z M 463.132812 19.515625 " fill-opacity="1" fill-rule="nonzero"/></svg>