<svg xmlns="http://www.w3.org/2000/svg" xmlns:xlink="http://www.w3.org/1999/xlink" width="940" zoomAndPan="magnify" viewBox="0 0 705 591.000005" height="788" preserveAspectRatio="xMidYMid meet" version="1.0"><defs><clipPath id="090127d33d"><path d="M 115 13.234375 L 590 13.234375 L 590 502 L 115 502 Z M 115 13.234375 " clip-rule="nonzero"/></clipPath></defs><path fill="#dbdbd2" d="M 201.824219 337.714844 C 176.941406 375.316406 140.738281 406.570312 126.730469 449.417969 C 125.09375 454.441406 123.789062 459.550781 122.816406 464.746094 C 121.84375 469.941406 121.210938 475.175781 120.917969 480.453125 C 120.625 485.730469 120.675781 491.003906 121.070312 496.273438 C 121.464844 501.546875 122.195312 506.769531 123.269531 511.945312 C 126.054688 525.324219 131.414062 538.683594 141.542969 547.886719 C 149.046875 554.710938 158.648438 558.808594 168.421875 561.519531 C 222.894531 576.667969 286.234375 546.664062 309.015625 494.921875 C 316.53125 477.816406 320.246094 458.644531 332.070312 444.222656 C 352.5625 419.160156 389.214844 417.074219 421.253906 412.417969 C 436.023438 410.246094 450.59375 407.132812 464.960938 403.074219 C 479.328125 399.015625 493.371094 394.046875 507.09375 388.167969 C 520.816406 382.289062 534.105469 375.550781 546.953125 367.949219 C 559.804688 360.347656 572.109375 351.949219 583.871094 342.753906 C 598.960938 330.921875 613.394531 317.386719 621.832031 300.160156 C 632.792969 277.785156 632.46875 251.113281 625.4375 227.199219 C 618.410156 203.289062 605.199219 181.703125 591.011719 161.230469 C 572.832031 134.988281 552.496094 109.691406 526.71875 90.851562 C 500.941406 72.011719 469.097656 59.984375 437.265625 62.933594 C 411.066406 65.375 386.875 77.453125 361.523438 84.621094 C 332.039062 92.96875 304.550781 91.699219 274.496094 89.914062 L 273.8125 89.914062 C 244.320312 88.398438 221.53125 115.734375 228.398438 144.484375 C 244.289062 210.660156 242.878906 275.621094 201.824219 337.714844 Z M 201.824219 337.714844 " fill-opacity="1" fill-rule="nonzero"/><path fill="#efbfb4" d="M 258.402344 534 C 234.277344 534 209.535156 527.207031 186.503906 514.042969 C 155.832031 496.484375 131.226562 469.542969 117.226562 438.167969 C 91.121094 379.660156 96.5625 305.136719 131.84375 238.757812 C 159.535156 186.632812 203.671875 139.125 270.675781 89.320312 C 286.746094 77.355469 296.257812 71.492188 306.773438 70.570312 C 317.640625 69.59375 328.945312 74.121094 346.277344 81.707031 C 408.859375 109.085938 467.117188 109.886719 506.105469 83.894531 C 509.769531 81.453125 513.484375 78.667969 517.074219 75.972656 C 529.578125 66.597656 542.503906 56.921875 558.367188 57.164062 C 585.539062 57.628906 603 87.796875 604.183594 116.695312 C 605.902344 158.820312 586.148438 203.425781 545.476562 249.28125 C 533.941406 262.3125 521.480469 274.839844 509.4375 286.972656 C 487.640625 308.964844 465.105469 331.636719 447.585938 357.546875 C 438.472656 371.027344 430.546875 385.628906 422.875 399.761719 C 419.1875 406.558594 415.375 413.605469 411.472656 420.421875 C 375.636719 483.039062 333.34375 520.25 285.671875 531.019531 C 276.691406 533.027344 267.605469 534.019531 258.402344 534 Z M 274.050781 93.898438 C 207.742188 143.179688 164.144531 190.0625 136.855469 241.429688 C 102.417969 306.25 97.027344 378.925781 122.429688 435.839844 C 151.113281 500.109375 222.265625 539.464844 284.410156 525.429688 C 330.457031 515.03125 371.554688 478.738281 406.511719 417.570312 C 410.390625 410.789062 414.191406 403.792969 417.867188 397.015625 C 425.59375 382.769531 433.59375 368.035156 442.863281 354.328125 C 460.683594 327.980469 483.40625 305.078125 505.386719 282.933594 C 517.386719 270.847656 529.820312 258.351562 541.222656 245.46875 C 580.886719 200.753906 600.160156 157.507812 598.496094 116.898438 C 597.960938 103.761719 593.742188 90.429688 586.914062 80.320312 C 581.613281 72.476562 572.34375 63.070312 558.296875 62.835938 C 544.246094 62.597656 532.785156 71.296875 520.511719 80.5 C 516.863281 83.246094 513.085938 86.078125 509.289062 88.644531 C 486.964844 103.523438 459.605469 110.171875 428.054688 108.410156 C 401.855469 106.953125 372.785156 99.535156 344.011719 86.941406 C 309.671875 71.921875 304.867188 71.035156 274.066406 93.9375 Z M 272.355469 91.609375 Z M 272.355469 91.609375 " fill-opacity="1" fill-rule="nonzero"/><g clip-path="url(#090127d33d)"><path fill="#efbfb4" d="M 263.894531 501.902344 C 241.152344 501.902344 217.792969 494.929688 196.136719 481.417969 C 167.289062 463.425781 144.152344 435.808594 130.980469 403.695312 C 106.472656 343.839844 111.605469 267.566406 144.714844 199.664062 C 170.777344 146.257812 212.214844 97.621094 275.214844 46.585938 C 290.386719 34.304688 299.363281 28.277344 309.332031 27.300781 C 319.644531 26.289062 330.3125 30.941406 346.660156 38.703125 C 381.160156 55.144531 446.511719 77.316406 496.558594 40.964844 C 500.003906 38.464844 503.492188 35.613281 506.871094 32.820312 C 518.65625 23.25 530.863281 13.316406 545.890625 13.558594 C 571.539062 14.03125 588.007812 44.898438 589.113281 74.472656 C 590.742188 117.558594 572.183594 163.199219 533.96875 210.144531 C 523.128906 223.460938 511.414062 236.324219 500.085938 248.75 C 479.617188 271.253906 458.441406 294.546875 441.941406 321.058594 C 433.375 334.90625 425.921875 349.832031 418.714844 364.316406 C 415.242188 371.277344 411.660156 378.476562 407.980469 385.492188 C 374.316406 449.644531 334.5 487.769531 289.613281 498.824219 C 281.164062 500.886719 272.589844 501.914062 263.894531 501.902344 Z M 277.015625 48.800781 L 278.804688 51.015625 C 216.476562 101.519531 175.492188 149.574219 149.835938 202.164062 C 117.429688 268.625 112.371094 343.164062 136.265625 401.535156 C 159.535156 458.359375 212.53125 496.167969 264.089844 496.167969 C 272.25 496.179688 280.292969 495.214844 288.222656 493.277344 C 331.445312 482.632812 370.03125 445.476562 402.898438 382.828125 C 406.546875 375.878906 410.121094 368.703125 413.574219 361.773438 C 420.839844 347.179688 428.355469 332.085938 437.0625 318.054688 C 453.808594 291.070312 475.179688 267.605469 495.84375 244.921875 C 507.113281 232.542969 518.769531 219.75 529.511719 206.554688 C 566.824219 160.714844 584.953125 116.351562 583.390625 74.699219 C 582.875 61.1875 578.902344 47.488281 572.457031 37.113281 C 567.53125 29.097656 558.867188 19.503906 545.785156 19.261719 C 532.851562 19.03125 521.96875 27.902344 510.476562 37.300781 C 507.042969 40.109375 503.480469 43.003906 499.890625 45.609375 C 478.851562 60.886719 453.089844 67.722656 423.332031 65.914062 C 398.652344 64.414062 371.289062 56.800781 344.199219 43.882812 C 312.101562 28.578125 307.613281 27.683594 278.796875 51.015625 Z M 277.015625 48.800781 " fill-opacity="1" fill-rule="nonzero"/></g></svg>