<svg version="1.1" id="Layer_1" xmlns="http://www.w3.org/2000/svg" xmlns:xlink="http://www.w3.org/1999/xlink" x="0px" y="0px" width="100%" viewBox="0 0 600 797">
  <path fill="#F5E7DD" opacity="1.000000" stroke="none" d="M 136.104 591.081 C 129.521 574.797 122.299 558.736 116.531 542.165 C 110.547 524.981 105.669 507.387 100.965 489.794 C 99.562 484.541 97.755 482.633 92.211 481.015 C 67.992 473.94 48.391 459.65 33.817 438.973 C 25.824 427.631 17.658 416.205 11.503 403.852 C 8.004 396.832 6.327 387.565 7.433 379.83 C 10.796 356.344 28.946 353.817 48.529 365.666 C 67.647 377.232 79.674 394.822 91.008 416.488 C 91.008 410.157 91.257 406.183 90.936 402.255 C 90.628 398.48 88.866 394.669 89.231 391.02 C 91.716 366.216 91.874 340.657 108.918 319.931 C 112.266 315.858 115.862 311.723 120.115 308.712 C 133.966 298.901 151.57 305.384 157.483 321.644 C 165.183 342.816 164.528 363.964 158.695 385.353 C 150.621 414.968 134.639 440.637 118.975 466.513 C 117.285 469.307 115.78 473.503 116.607 476.339 C 126.074 508.765 136.01 541.052 145.82 573.377 C 147.005 573.085 148.191 572.793 149.377 572.499 C 148.809 561.586 147.989 550.678 147.737 539.758 C 147.451 527.36 146.75 514.866 147.897 502.57 C 149.454 485.878 153.855 469.733 163.412 455.539 C 174.876 438.512 193.949 439.611 202.105 458.647 C 206.477 468.853 207.61 480.451 210.222 493.071 C 206.506 511.09 198.781 526.977 203.541 544.649 C 198.827 558.98 194.844 573.115 190.166 587.339 C 175.442 595.24 173.953 609.381 175.513 622.274 C 179.712 656.97 200.177 689.963 241.987 693.523 C 248.074 694.04 257.699 693.46 259.64 702.466 C 262.703 716.677 264.495 731.163 266.826 745.532 C 247.994 745.349 232.573 755.59 216.199 762.59 C 195.265 771.541 173.627 777.233 150.975 776.91 C 134.922 776.681 119.771 771.37 107.974 759.782 C 87.897 740.058 92.846 710.288 117.656 696.406 C 131.62 688.592 146.354 685.083 162.169 685.165 C 175.289 685.234 188.412 685.178 201.461 685.178 C 193.503 675.42 184.896 664.437 175.725 653.948 C 173.757 651.697 169.717 650.043 166.689 650.126 C 124.029 651.326 88.958 634.046 56.907 607.368 C 35.618 589.651 20.008 568.142 7.702 543.808 C 3.488 535.477 2.134 527.162 4.542 517.315 C 8.815 499.846 26.251 497.312 37.972 503.468 C 50.735 510.171 63.321 518.382 73.62 528.378 C 94.511 548.661 113.809 570.592 134.641 592.708 C 136.178 593.85 136.837 594.125 137.496 594.399 C 137.032 593.293 136.568 592.188 136.104 591.081 Z" style="" id="object-0"></path>
  <path fill="#DDD3CA" opacity="1.000000" stroke="none" d="M 267.487 745.859 C 264.495 731.163 262.703 716.677 259.64 702.466 C 257.699 693.46 248.074 694.04 241.987 693.523 C 200.177 689.963 179.712 656.97 175.513 622.274 C 173.953 609.381 175.442 595.24 190.887 587.376 C 199.533 592.463 206.765 597.598 214.095 603.448 C 226.84 628.288 239.487 652.411 252.134 676.536 C 253.138 676.154 254.142 675.771 255.147 675.389 C 255.147 671.931 255.063 668.471 255.161 665.015 C 255.723 645.272 256.574 625.53 256.661 605.785 C 256.675 602.704 254.001 598.539 251.323 596.708 C 240.396 589.236 228.984 582.477 217.642 574.785 C 213.112 564.226 208.693 554.342 204.274 544.456 C 198.781 526.977 206.506 511.09 210.27 493.922 C 212.296 490.83 214.279 488.529 216.29 486.252 C 224.216 477.272 232.114 477.192 237.265 487.929 C 242.61 499.068 245.888 511.311 249.069 523.338 C 250.843 530.041 250.58 537.283 251.27 545.955 C 253.776 559.568 256.246 571.505 258.716 583.442 C 259.264 583.312 259.811 583.179 260.358 583.048 C 262.505 573.962 264.651 564.874 266.797 555.787 C 270.943 544.263 274.454 532.458 279.39 521.284 C 285.824 506.72 286.046 504.861 275.326 493.038 C 264.9 481.536 258.417 468.188 259.196 452.529 C 260.258 431.209 268.659 413.087 285.51 399.371 C 295.383 391.336 304.573 394.595 307.996 406.623 C 312.752 423.331 305.897 438.552 302.903 454.256 C 300.732 465.644 297.847 476.896 295.166 488.708 C 311.725 470.34 327.698 452.946 343.158 435.104 C 345.287 432.647 346.168 427.679 345.407 424.387 C 342.515 411.874 335.918 399.571 335.91 387.187 C 335.897 369.184 339.865 350.913 358.227 340.75 C 363.841 337.643 367.572 338.789 371.508 344.396 C 380.146 356.705 379.152 369.359 374.761 382.465 C 370.994 393.71 366.975 404.87 362.973 416.337 C 364.486 415.853 366.258 415.823 367.151 414.921 C 381.997 399.931 396.673 384.775 411.522 369.787 C 417.378 363.876 415.446 358.77 411.139 352.978 C 401.234 339.668 394.836 324.658 396.196 307.939 C 396.8 300.514 400.499 292.775 404.62 286.357 C 409.1 279.376 417.885 279.376 422.255 286.447 C 426.421 293.19 429.901 301.279 430.575 309.045 C 431.539 320.152 429.674 331.506 428.403 343.81 C 427.729 345.914 427.669 346.963 427.61 348.011 C 428.474 347.373 429.336 346.735 430.2 346.097 C 441.01 326.905 451.938 307.777 462.583 288.492 C 468.596 277.602 458.831 273.186 452.822 268.541 C 440.35 258.899 429.37 235.674 435.317 218.909 C 436.834 214.631 441.299 208.334 444.336 208.377 C 449.059 208.443 454.826 212.176 458.193 216.06 C 467.582 226.893 468.068 241.012 470.006 254.433 C 470.419 257.302 470.066 260.282 471.754 263.823 C 472.523 261.893 473.519 260.02 474.028 258.024 C 479.262 237.553 484.413 217.06 489.597 196.577 C 491.797 187.879 486.249 183.078 479.808 180.446 C 463.236 173.674 455.825 160.347 452.791 144.09 C 451.931 139.48 453.354 133.615 455.691 129.423 C 459.586 122.436 466.369 124.562 470.25 129.001 C 476.209 135.815 481.223 143.668 485.482 151.695 C 488.651 157.671 489.99 164.621 493.1 174.028 C 494.021 160.6 494.077 149.951 495.6 139.517 C 499.209 114.797 488.784 92.394 484.841 68.941 C 481.575 49.52 478.454 30.077 483.87 10.633 C 486.894 -0.223 493.319 -1.449 501.183 6.843 C 510.293 16.447 511.869 28.837 512.995 41.185 C 515.064 63.85 511.396 85.847 504.515 107.398 C 504.034 108.903 503.346 110.451 503.34 111.981 C 503.257 129.74 503.287 147.501 503.287 164.019 C 507.172 157.508 511.601 148.983 517.129 141.246 C 520.354 136.734 524.81 132.491 529.654 129.892 C 537.595 125.631 545.22 133.669 543.862 144.253 C 540.957 166.914 531.262 178.798 508.428 184.017 C 494.745 187.145 496.059 198.028 493.753 207.081 C 489.389 224.199 485.727 241.497 481.159 259.711 C 480.485 261.749 480.424 262.798 480.365 263.846 C 481.229 263.209 482.092 262.57 482.956 261.932 C 492.304 251.995 501.197 241.559 511.222 232.361 C 515.318 228.605 521.789 226.152 527.33 225.847 C 529.914 225.705 535.175 232.026 535.27 235.523 C 536.005 262.996 510.314 284.109 492.211 281.795 C 478.01 279.979 469.74 284.526 465.43 298.717 C 462.62 307.963 457.188 316.488 452.388 325.029 C 447.673 333.423 442.274 341.427 438.233 350.866 C 449.579 343.796 460.456 335.751 472.43 329.993 C 480.647 326.043 490.291 324.512 499.478 323.355 C 505.314 322.621 507.069 327.865 505.997 332.963 C 501.122 356.171 485.692 368.386 463.581 374.045 C 452.78 376.811 443.093 374.17 433.421 370.128 C 426.545 367.253 422.378 368.166 416.753 374.764 C 403.489 390.32 388.225 404.163 372.85 419.597 C 370.869 420.857 369.81 421.217 368.751 421.577 C 368.953 422.12 369.154 422.661 369.354 423.203 C 371.059 422.502 372.764 421.801 374.469 421.099 C 387.203 417.651 399.8 413.496 412.717 410.993 C 421.762 409.242 431.311 408.835 440.512 409.513 C 449.249 410.157 452.321 417.392 448.808 425.646 C 441.665 442.422 427.242 449.685 410.802 451.917 C 395.276 454.025 379.996 452.162 365.961 442.69 C 354.577 435.007 353.449 434.984 342.859 445.846 C 331.202 457.805 320.448 470.649 309.438 483.229 C 308.168 484.681 307.786 486.913 306.772 489.299 C 319.391 484.93 331.062 480.572 342.936 476.869 C 353.997 473.421 365.15 472.229 376.214 477.623 C 387.315 483.038 389.206 491.984 381.237 501.243 C 371.249 512.845 357.685 516.515 343.62 516.504 C 331.045 516.494 318.425 513.826 305.917 511.771 C 297.824 510.442 291.205 509.394 287.775 519.817 C 282.967 534.43 276.641 548.537 271.193 562.948 C 270.471 564.854 271.094 567.27 271.094 572.281 C 279.727 565.141 286.913 559.643 293.587 553.578 C 305.463 542.788 318.737 536.777 335.211 538.26 C 347.108 539.333 352.175 546.576 349.09 558.107 C 345.003 573.388 332.546 580.688 320.351 586.504 C 308.671 592.074 295.134 593.73 280.769 597.119 C 263.108 599.361 258.893 601.035 260.92 615.418 C 261.095 616.652 260.49 617.978 260.489 619.259 C 260.458 638.526 260.466 657.792 260.466 677.058 C 261.061 677.011 261.655 676.964 262.25 676.915 C 269.684 661.976 277.118 647.035 284.553 632.094 C 293.428 622.907 300.323 610.752 314.458 608.914 C 321.252 608.03 331.987 606.937 334.495 610.495 C 338.617 616.344 339.348 626.217 338.055 633.804 C 336.823 641.028 331.173 647.498 326.879 655.104 C 321.425 661.176 316.557 666.445 311.022 671.82 C 300.328 677.659 290.299 683.393 279.553 689.117 C 271.084 690.911 263.581 694.47 265.232 703.5 C 268.096 719.168 272.774 734.502 276.663 750.669 C 276.708 752.75 276.781 754.136 276.134 755.557 C 273.973 755.623 272.531 755.653 271.09 755.683 C 270.11 752.519 269.129 749.353 267.487 745.859 M 304.213 490.316 C 304.737 490.977 305.262 491.641 305.786 492.304 C 305.686 491.343 305.585 490.381 304.213 490.316 Z" style="" id="object-1"></path>
  <path fill="#EDEDE9" opacity="1.000000" stroke="none" d="M 311.688 671.714 C 316.557 666.445 321.425 661.176 326.978 655.806 C 342.888 656.083 356.025 670.722 356.804 687.553 C 357.492 702.43 356.518 716.798 348.133 730.649 C 359.924 725.164 371.715 719.679 383.072 714.394 C 377.706 700.439 371.787 687.032 367.449 673.131 C 363.929 661.849 368.116 650.84 374.452 641.696 C 377.13 637.83 384.262 634.562 388.916 635.082 C 398.841 636.195 405.511 643.188 409.528 652.602 C 416.279 668.423 412.234 683.264 405.328 697.947 C 405.968 698.626 406.607 699.305 407.247 699.985 C 417.659 693.004 428.071 686.022 438.837 678.806 C 432.82 669.938 426.821 661.528 421.276 652.83 C 412.814 639.56 409.55 625.433 415.045 609.997 C 418.356 600.69 424.897 596.856 434.147 599.553 C 450.779 604.404 458.717 619.923 460.13 636.394 C 460.72 643.256 459.48 650.273 458.858 660.879 C 470.475 649.885 480.277 640.609 490.774 630.677 C 482.425 622.301 475.151 613.971 466.82 606.887 C 454.018 596.006 453.276 581.71 454.953 567.127 C 455.979 558.21 469.63 554.726 480.725 559.643 C 496.194 566.498 503.817 578.873 505.176 595.376 C 505.568 600.144 505.236 604.969 505.236 613.013 C 512.314 603.112 517.791 595.634 522.998 587.969 C 523.805 586.781 523.389 584.749 523.514 583.106 C 524.602 568.849 524.043 554.188 527.403 540.489 C 529.334 532.614 536.515 524.898 543.27 519.581 C 556.18 509.418 572.135 518.167 573.656 535.06 C 575.507 555.641 560.469 576.18 543.524 582.998 C 532.609 587.391 524.122 592.903 518.332 604.874 C 531.436 597.436 544.554 596.67 557.075 601.389 C 563.649 603.868 570.263 609.108 574.275 614.897 C 580.962 624.546 577.536 631.903 567.06 638.399 C 551.151 648.262 535.273 643.356 519.263 639.411 C 517.741 639.036 516.04 638.93 514.75 638.152 C 497.545 627.803 487.72 638.1 479.817 649.668 C 489.006 652.233 499.56 653.529 508.327 658.193 C 514.396 661.423 519.986 668.683 522.031 675.306 C 523.47 679.97 520.274 688.915 516.201 691.861 C 507.231 698.352 496.064 700.793 484.866 696.853 C 473.043 692.693 461.302 688.248 449.743 683.407 C 444.753 681.318 441.211 680.686 437.231 685.479 C 434.319 688.986 429.861 691.203 425.342 694.55 C 439.572 697.33 453.227 699.871 462.912 711.932 C 468.643 719.067 471.319 727.507 467.371 734.132 C 464.348 739.204 455.748 742.478 449.133 743.584 C 428.121 747.095 412.384 734.374 396.429 723.674 C 389.986 719.355 384.765 718.118 377.845 722.261 C 370.897 726.421 363.277 729.455 355.458 733.221 C 378.662 738.151 397.897 748.122 408.217 770.797 C 411.258 777.478 415.038 785.261 408.622 789.957 C 402.892 794.152 393.932 796.689 386.91 795.816 C 367.312 793.383 354.858 779.406 343.35 764.647 C 338.82 758.84 333.845 753.313 328.535 748.222 C 326.813 746.573 323.033 745.559 320.777 746.228 C 301.846 751.835 283.05 757.9 264.215 763.829 C 263.701 762.808 263.186 761.787 262.672 760.767 C 265.227 759.533 267.781 758.298 270.713 756.374 C 272.531 755.653 273.973 755.623 276.814 755.342 C 282.306 753.313 286.396 751.529 290.407 749.745 C 290.326 749.74 290.29 749.898 291.105 749.839 C 300.279 747.219 308.512 744.02 317.043 742.295 C 323.926 740.903 324.153 737.774 322.592 732.124 C 317.124 712.335 308.568 693.067 311.688 671.714 Z" style="" id="object-2"></path>
</svg>